<?xml version="1.0" encoding="utf-8"?>
<!-- Generator: Adobe Adobe Illustrator 24.2.0, SVG Export Plug-In . SVG Version: 6.00 Build 0)  -->
<svg version="1.1" id="Layer_1" xmlns="http://www.w3.org/2000/svg" xmlns:xlink="http://www.w3.org/1999/xlink" x="0px" y="0px"
	 width="165.73px" height="165.73px" viewBox="0 0 165.73 165.73" style="enable-background:new 0 0 165.73 165.73;"
	 xml:space="preserve">
<style type="text/css">
	.st0{fill:#FDFDFD;stroke:#000000;stroke-miterlimit:10;}
	.st1{fill:#FCFCFD;stroke:#000000;stroke-miterlimit:10;}
	.st2{fill:#FCFCFC;stroke:#000000;stroke-miterlimit:10;}
</style>
<g>
	<path class="st0" d="M39.21,99.18c-0.42-0.53-0.61-1.08-0.57-1.7c0.06-1.1,0.96-2.02,2.12-2.05l5.9,0.01
		c1.11,0.04,2.01,0.57,2.48,1.66c0.04,0.09,0.11,0.18,0.19,0.32c4.96-9.12,6.43-14.57,12.49-14.56l42.84,0.01
		c2.98,0,5.24,1.32,6.71,3.9c0,0,5.62,10.17,5.86,10.6c0.64-1.59,1.87-2,3.36-1.97l5.41,0.07c1.58,0.29,2.35,1.98,1.52,3.36
		c0,0-5.59,5.35-6,5.66c0.18,0.22,0.33,0.41,0.48,0.59c3.05,3.65,4.68,7.81,4.68,12.6c-0.01,7.54,0,15.09-0.01,22.63
		c0,0.56-0.04,1.14-0.18,1.68c-0.45,1.82-1.97,3.07-3.84,3.14c-1.43,0.05-2.86,0.05-4.28,0c-4.45-0.14-3.94-5.58-3.94-5.58
		s-61.75-0.05-62.4,0c0,0,0.29,2.17-0.44,3.53c-0.68,1.27-1.77,1.97-3.19,2.03c-1.53,0.07-3.07,0.08-4.61,0.01
		c-2.07-0.09-3.65-1.73-3.82-3.81c-0.02-0.27-0.02-0.54-0.02-0.81l-0.01-22.96c-0.02-7.72,5.05-13.07,5.05-13.07L39.21,99.18z
		 M112,101.2c-0.1-0.25-6.2-11.38-6.2-11.38c-0.24-0.45-0.54-0.59-1.02-0.55l-43.22-0.01c-0.41-0.01-0.65,0.09-0.82,0.47
		c0,0-5.95,11.04-6.13,11.47L112,101.2z M66.37,127.85l-9.85,6.33c-0.53,0.52-1.88,1.42-1.34,2.58c0.24,0.51,0.65,0.76,1.22,0.76
		h53.99c0.95-0.13,1.44-1.14,0.96-1.96c-0.15-0.25-0.36-0.47-0.57-0.67l-10.63-7.02H66.37z M56.56,120.39
		c1.33,0.21,2.66,0.42,3.99,0.63c0.16,0.03,0.32,0.06,0.48,0.07c0.68,0.04,1.23-0.34,1.42-0.96c0.18-0.59-0.05-1.16-0.61-1.53
		c-0.2-0.13-0.42-0.23-0.64-0.34c-1.39-0.71-2.78-1.42-4.17-2.12c-3.17-1.61-6.35-3.18-9.49-4.84c-1.59-0.84-2.98,0.18-2.88,1.78
		c0.07,1.15,0.02,2.31,0.01,3.47c0,0.59,0.15,1.11,0.54,1.56c0.44,0.5,1.03,0.66,1.65,0.75C50.04,119.37,53.23,119.87,56.56,120.39z
		 M113.88,119.77c2.02-0.32,4.05-0.63,6.07-0.97c1.15-0.19,1.88-0.97,1.91-2.07c0.04-1.35,0.05-2.7,0-4.04
		c-0.05-1.37-1.3-2.08-2.54-1.5c-0.07,0.03-0.14,0.07-0.22,0.11c-4.66,2.36-9.32,4.73-13.98,7.1c-0.19,0.1-0.39,0.19-0.56,0.32
		c-0.42,0.32-0.61,0.76-0.5,1.28c0.1,0.51,0.4,0.9,0.91,1.03c0.3,0.07,0.64,0.06,0.95,0.01
		C108.52,120.63,111.13,120.21,113.88,119.77z"/>
	<path class="st1" d="M103.38,34.3l-7.18-7.23c-0.92-0.92-0.94-1.63-0.01-2.56c1.08-1.09,2.18-2.17,3.27-3.25
		c0.93-0.92,1.62-0.92,2.56,0.02l15.56,15.65c1.15,1.19,1.17,2.12,0.01,3.28l-15.92,15.86c-0.65,0.53-1.38,0.56-1.98-0.02
		c0,0-2.88-2.86-3.83-3.83c-0.62-0.64-0.53-1.4,0.14-2.08c0,0,6.93-6.93,7.18-7.21c-0.54-0.02-42.25-0.16-42.25-0.16
		c-0.66-0.21-1.04-0.68-1.04-1.38l-0.01-5.66c0-0.65,0.33-1.08,0.94-1.26L103.38,34.3z"/>
	<path class="st2" d="M52.93,45.81c0.16-0.15,0.27-0.28,0.39-0.38c0.74-0.61,1.58-0.63,2.26,0.02c1.19,1.14,3.49,3.48,3.49,3.48
		c0.53,0.55,0.52,1.22,0.05,1.83c-0.15,0.19-0.33,0.36-0.5,0.53l-5.89,5.89c-0.19,0.19-0.36,0.38-0.69,0.73
		c0.55,0.01,41.89,0.07,41.89,0.07c0.84,0.16,1.33,0.7,1.34,1.57c0.02,1.45,0.02,2.91,0,4.36c-0.01,0.9-0.54,1.45-1.42,1.57
		l-40.73,0.02c-0.26,0-0.51,0.02-0.92,0.04c0.28,0.3,0.46,0.49,0.64,0.67l5.85,5.8c0.15,0.15,0.31,0.3,0.45,0.46
		c0.52,0.61,0.56,1.31,0.01,1.89c-1.16,1.2-2.34,2.39-3.55,3.54c-0.66,0.62-1.48,0.58-2.19-0.04C52.89,77.38,38.99,63.5,38.99,63.5
		c-0.23-0.23-0.47-0.45-0.67-0.7c-0.62-0.77-0.59-1.68,0.06-2.43c0.19-0.22,0.41-0.43,0.62-0.64L52.93,45.81z"/>
</g>
</svg>
