<?xml version="1.0" encoding="utf-8"?>
<!-- Generator: Adobe Adobe Illustrator 24.2.0, SVG Export Plug-In . SVG Version: 6.00 Build 0)  -->
<svg version="1.1" id="Layer_1" xmlns="http://www.w3.org/2000/svg" xmlns:xlink="http://www.w3.org/1999/xlink" x="0px" y="0px"
	 width="500px" height="500px" viewBox="0 0 500 500" style="enable-background:new 0 0 500 500;" xml:space="preserve">
<style type="text/css">
	.st0{fill:#0E141B;}
	.st1{fill:#F6F8FA;}
	.st2{fill:#FFFFFF;}
	.st3{fill:url(#SVGID_1_);}
	.st4{fill:#F6F8FA;stroke:#000000;stroke-miterlimit:10;}
	.st5{fill:#FFFFFF;stroke:#000000;stroke-miterlimit:10;}
	.st6{stroke:#000000;stroke-miterlimit:10;}
	.st7{fill:#0C80CE;stroke:#000000;stroke-miterlimit:10;}
	.st8{fill:#34BDF7;stroke:#000000;stroke-miterlimit:10;}
	.st9{fill:#2C6A87;stroke:#000000;stroke-miterlimit:10;}
	.st10{fill:#EDF0F3;stroke:#000000;stroke-miterlimit:10;}
	.st11{fill:#0E141B;stroke:#000000;stroke-miterlimit:10;}
	.st12{fill:#12181F;stroke:#000000;stroke-miterlimit:10;}
</style>
<g>
	<g>
		<path d="M189.01,157.92c12.32-15.89,24.53-31.53,36.72-47.19c7.49-9.62,14.95-19.26,22.44-28.88c4.02-5.16,9.04-8.85,15.72-9.32
			c10.86-0.75,20.14,8.15,20.16,19.24c0.06,32.29,0.02,64.57,0.03,96.85c0,9.33,0.62,18.71-0.15,27.98
			c-0.87,10.55,8.54,18.85,18.97,18.65c20.8-0.39,41.62-0.17,62.42-0.11c8.43,0.03,13.7,3.94,16.6,11.67
			c2.54,6.77-0.74,12.06-4.45,17.01c-5.63,7.52-11.68,14.73-17.51,22.11c-9.91,12.57-19.81,25.15-29.67,37.76
			c-7.32,9.36-14.57,18.77-21.84,28.16c-5.82,7.51-11.6,15.06-17.43,22.57c-10.29,13.26-20.61,26.51-30.92,39.75
			c-2.31,2.97-4.34,6.24-7,8.85c-4.89,4.8-10.99,5.6-17.13,3.04c-4.91-2.05-7.27-6.39-7.5-11.72c-0.12-3.02-0.04-6.05-0.04-9.08
			c-0.01-37.33-0.05-74.66-0.01-111.99c0.01-7.08-2.52-12.72-8.48-16.71c-3.47-2.32-7.35-3.13-11.43-3.14
			c-24.09-0.02-48.18-0.04-72.26-0.02c-5.92,0-11.27-1.36-15.09-6.25c-5.53-7.07-5.35-16.05,0.61-23.67
			c14.25-18.21,28.6-36.33,42.9-54.5C172.77,178.73,180.83,168.45,189.01,157.92z M247.33,180.51c0-10.48,0-20.95,0-31.42
			c-0.48-0.15-0.95-0.29-1.43-0.44c-21.83,28.63-44.07,56.94-65.57,85.74c2,1.78,3.46,1.44,4.8,1.43
			c7.43-0.04,14.86-0.17,22.29-0.22c10.82-0.08,21.65-0.13,32.48-0.18c3.92-0.02,6.48-1.72,7.04-5.78c0.22-1.61,0.39-3.25,0.39-4.87
			C247.35,210.25,247.33,195.75,247.33,180.51z M274.39,334.49c15.52-20.05,31.05-40.11,47.08-60.82
			c-5.59-1.06-10.08-0.83-14.59-0.77c-12.22,0.16-24.44,0.29-36.66,0.12c-5.93-0.08-7.98,1.47-7.96,7.55
			c0.02,4.41,0.44,8.82,0.27,13.22c-0.66,16.89-0.12,33.77-0.33,50.66c-0.01,1.27-0.45,2.83,1.64,3.77
			C267.22,343.8,270.62,339.35,274.39,334.49z"/>
	</g>
</g>
</svg>
