<?xml version="1.0" encoding="utf-8"?>
<!-- Generator: Adobe Adobe Illustrator 24.2.0, SVG Export Plug-In . SVG Version: 6.00 Build 0)  -->
<svg version="1.1" id="Layer_1" xmlns="http://www.w3.org/2000/svg" xmlns:xlink="http://www.w3.org/1999/xlink" x="0px" y="0px"
	 width="400px" height="210px" viewBox="0 0 400 210" style="enable-background:new 0 0 400 210;" xml:space="preserve">
<style type="text/css">
	.st0{fill:#0E141B;}
	.st1{fill:#F6F8FA;}
	.st2{fill:#FFFFFF;}
	.st3{fill:url(#SVGID_1_);}
	.st4{fill:#F6F8FA;stroke:#000000;stroke-miterlimit:10;}
	.st5{fill:#FFFFFF;stroke:#000000;stroke-miterlimit:10;}
	.st6{stroke:#000000;stroke-miterlimit:10;}
	.st7{fill:#0C80CE;stroke:#000000;stroke-miterlimit:10;}
	.st8{fill:#34BDF7;stroke:#000000;stroke-miterlimit:10;}
	.st9{fill:#2C6A87;stroke:#000000;stroke-miterlimit:10;}
	.st10{fill:#EDF0F3;stroke:#000000;stroke-miterlimit:10;}
	.st11{fill:#0E141B;stroke:#000000;stroke-miterlimit:10;}
	.st12{fill:#12181F;stroke:#000000;stroke-miterlimit:10;}
</style>
<g>
	<path d="M166.15,71.4c-4.28-1.67-8.81-2.19-13.38-2.23c-10.73-0.09-19.79,3.5-26.55,12.11c-1.65,2.1-1.75,2.11-3.58,0.03
		c-2.79-3.16-5.83-6.01-9.59-8.02c-6.89-3.67-14.25-4.62-21.92-3.81c-6.6,0.69-12.35,3.39-17.26,7.7c-1.28,1.12-2.97,3.25-4.48,4.86
		c0,0-0.78,0.92-1.26,0.78c-0.49-0.14-0.68-0.27-0.68-1.35v-5.74c-0.07-2.52-0.94-3.27-3.49-3.28c-5.03-0.01-10.06,0.08-15.08-0.03
		c-3.57-0.08-4.47,0.7-4.47,4.46v88.68c0,2.25,0.78,3.1,2.96,3.11l17.78,0c1.85-0.01,2.62-2.64,2.62-2.64v-51.16
		c0-4.16,0.52-8.23,2.12-12.1c1.81-4.36,4.7-7.74,9.05-9.76c3.55-1.65,7.3-1.83,11.08-1.34c1.94,0.25,3.92,0.71,5.7,1.49
		c4.2,1.83,6.52,5.31,7.55,9.66c0.76,3.23,0.7,6.53,0.7,9.82v52.27c0.06,2.57,1.06,3.71,3.26,3.72l17.86,0.08
		c2.78,0.03,3.74-0.64,3.74-3.81V114.3c0-2.86,0.2-5.75,0.71-8.55c1.22-6.79,4.48-12.49,11.84-13.8c1.91-0.34,3.72-0.48,5.5-0.42
		c7.8,0.26,12.81,4.31,14.92,11.2c0.88,2.88,1.13,5.86,1.12,8.86v54.39c0.07,1.75,0.9,2.59,2.68,2.71c0.48,0.03,19.2,0.03,19.57,0
		c2.28-0.08,2.34-1.17,2.36-2.71v-57.54c-0.01-4.79-0.4-9.56-1.66-14.21C182.97,83.46,176.73,75.52,166.15,71.4z"/>
	<path d="M351.7,136.35l-17.05,0c-1.77-0.03-2.95,0.64-3.94,2c-0.77,1.06-1.56,2.13-2.46,3.08c-3.93,4.16-8.81,6.43-14.46,7.25
		c-10.47,1.53-20.1-3.09-25.19-12.41c-4.48-8.21-5.2-16.92-2.71-25.87c1.43-5.12,4.2-9.5,8.23-13c5.85-5.08,12.75-6.62,20.26-5.68
		c4.4,0.55,8.48,2.08,11.92,5.24c1.52,1.61,3.15,2.98,4.32,4.68c1.24,1.8,2.69,2.46,4.81,2.43l16.69-0.03
		c0.48,0,0.96,0.03,1.43-0.04c1.45-0.22,2.23-1.23,1.96-2.67c-0.19-1.05-0.52-2.09-0.88-3.1c-2.43-6.72-6.41-12.4-11.66-17.2
		c-5.63-5.15-12.19-8.6-19.6-10.41c-6.46-1.58-13.01-1.73-19.6-1.07c-5.04,0.51-9.86,1.82-14.46,3.96
		c-6.8,3.15-12.43,7.77-17.24,13.48c-7.27,8.63-11.13,18.6-11.82,29.8c-0.34,5.51-0.11,11.03,1.15,16.41
		c3.45,14.82,11.75,26.08,25.44,32.91c11.29,5.63,23.31,6.33,35.54,3.78c9.87-2.07,18.07-7.13,24.69-14.7
		c3.57-4.08,6.35-8.66,8.12-13.84C356.43,137.79,354.65,136.29,351.7,136.35z"/>
	<path d="M249.13,148.95c-1.97-0.04-3.95,0.04-5.92-0.02c-4.05-0.12-7.64-1.41-10.36-4.55c-2.17-2.5-3.11-5.51-3.15-8.76l-0.1-41.63
		c0.01-3.31,0.28-3.58,3.6-3.58l15.44-0.01c2.63-0.01,3.4-0.68,3.45-3.23l-0.01-11.48c0-0.42-0.05-0.84-0.13-1.25
		c-0.24-1.25-0.9-1.86-2.19-1.96c-0.71-0.06-1.44-0.03-2.15-0.03l-15.62-0.01c-1.77-0.01-2.22-0.47-2.3-2.23V42.57
		c0.01-3.53-1.46-3.9-3.83-3.87c-5.5,0.08-11.01,0-16.51,0c-3.72,0-4.4,0.57-4.39,4.28v27.27c-0.14,1.64-0.76,2.17-2.43,2.2
		l-6.46,0.02c-2.03,0.02-2.95,0.9-2.97,2.95l-0.01,11.84c0.02,2.2,0.99,3.11,3.23,3.14l6.28,0.02c1.76,0.03,2.28,0.44,2.41,2.18
		c0.23,2.99-1.22,47.64,1.68,56.71c3.62,11.3,12.58,18.8,24.39,19.73c6.13,0.48,12.31,0.29,18.47,0.33
		c1.73,0.01,2.54-0.83,2.57-2.77c0.07-4.96,0.06-9.93-0.03-14.89C252.04,149.65,251.23,148.99,249.13,148.95z"/>
</g>
</svg>
