<?xml version="1.0" encoding="utf-8"?>
<!-- Generator: Adobe Adobe Illustrator 24.2.0, SVG Export Plug-In . SVG Version: 6.00 Build 0)  -->
<svg version="1.1" id="Layer_1" xmlns="http://www.w3.org/2000/svg" xmlns:xlink="http://www.w3.org/1999/xlink" x="0px" y="0px"
	 width="981.9px" height="436.98px" viewBox="0 0 981.9 436.98" style="enable-background:new 0 0 981.9 436.98;"
	 xml:space="preserve">
<style type="text/css">
	.st0{fill:#0F3554;}
	.st1{fill:#1D2838;}
	.st2{fill:#63C6E4;}
	.st3{fill:#123E42;}
	.st4{fill:#59C3D6;}
	.st5{fill:#173037;}
	.st6{fill:#FFFFFF;}
	.st7{fill:#65CBE4;}
</style>
<g>
	<path d="M233.43,295.85c-20.61-30.12-115-174.8-115-174.8c-6.6-10.3-13.6-13-24.8-10v215.4h17.6l-0.1-185.6l115.5,175
		c6.5,10.2,13.4,13.2,24.7,10v-215.1h-17.9V295.85z"/>
	<path d="M797.17,211.24h-122.6v-100.5c-6.1,0-11,0-16.7,0v215.7c5.7,0,10.7,0,16.8,0v-98h122.9v97.9c6.2,0,11.5,0,16.8,0v-215.8
		c-5.5,0-10.2,0-17.1,0L797.17,211.24z"/>
	<path d="M605.6,121.99l-152.5,204.2c19.48,0.17,18.88,0.01,26.9-9.5l136.4-181.8l0.2,150.3c-0.45,15.68-0.51,27.84-11.2,39.9
		c-0.43,0.49-0.74,1.49,0.4,1.5c0,0,18.4,0,27.5,0v-214.8C620.7,108.09,613,111.79,605.6,121.99z"/>
	<polygon points="841.97,114.67 848.27,114.67 848.27,132.87 853.27,132.87 853.27,114.67 859.67,114.67 859.67,110.57 
		841.97,110.57 	"/>
	<path d="M881.07,110.57l-4.6,13.2c-0.3,0.9-0.6,2-0.9,3.2h-0.1c-0.2-1.1-0.4-2.1-0.8-3.2l-4.6-13.2h-7.3v22.3h4.5v-12.3
		c0-1.7-0.1-3.6-0.2-5.8h0.1c0.3,1.7,0.6,2.7,0.7,3.1l5.3,15h4.1l5.2-15.1c0.2-0.6,0.4-1.6,0.7-3h0.1c-0.1,1.8-0.2,3.4-0.2,4.8v13.3
		h5h0.2v-22.3H881.07z"/>
	<path d="M372.53,108.01c-51.18,0-86.84,41.27-86.84,109.51c0,68.56,35.67,111.46,86.84,111.46c51.18,0,87.16-42.89,87.16-111.46
		C459.68,149.6,423.7,108.01,372.53,108.01z M372.51,312.65c-39.53,0-65.21-37.17-65.21-95.23c0-57.7,25.68-93.1,65.21-93.1
		s65.55,35.4,65.55,93.1C438.06,275.48,412.05,312.65,372.51,312.65z"/>
</g>
</svg>
